<?xml version="1.0" encoding="UTF-8" standalone="no" ?>
<!DOCTYPE svg PUBLIC "-//W3C//DTD SVG 1.1//EN" "http://www.w3.org/Graphics/SVG/1.1/DTD/svg11.dtd">
<svg xmlns="http://www.w3.org/2000/svg" xmlns:xlink="http://www.w3.org/1999/xlink" version="1.1" width="640" height="480" viewBox="0 0 640 480" xml:space="preserve">
<desc>Created with Fabric.js 3.6.3</desc>
<defs>
</defs>
<g transform="matrix(8.93 0 0 8.93 313.06 249.02)" id="Layer_1"  >
<path style="stroke: none; stroke-width: 1; stroke-dasharray: none; stroke-linecap: butt; stroke-dashoffset: 0; stroke-linejoin: miter; stroke-miterlimit: 4; fill: rgb(35,31,32); fill-rule: nonzero; opacity: 0.2;"  transform=" translate(-31.56, -33.6)" d="M 49.899 46.243 L 35.757 32.1 c -1.031 -1.031 -2.481 -1.367 -3.799 -1.037 l -8.093 -7.993 l -3.037 -5.898 l -5.911 -3.044 l -2.867 2.867 l 3.044 5.911 l 5.911 3.044 l 0.008 -0.008 l 8.066 7.966 c -0.351 1.331 -0.021 2.805 1.022 3.849 l 14.142 14.142 c 1.562 1.562 4.095 1.562 5.657 0 C 51.462 50.337 51.462 47.805 49.899 46.243 z" stroke-linecap="round" />
</g>
<g transform="matrix(8.93 0 0 8.93 280.52 198.27)" id="Layer_1"  >
<polygon style="stroke: none; stroke-width: 1; stroke-dasharray: none; stroke-linecap: butt; stroke-dashoffset: 0; stroke-linejoin: miter; stroke-miterlimit: 4; fill: rgb(79,93,115); fill-rule: nonzero; opacity: 1;"  points="6.58,9.35 -9.52,-6.56 -6.58,-9.35 9.52,6.56 " />
</g>
<g transform="matrix(8.93 0 0 8.93 388.41 306.16)" id="Layer_1"  >
<path style="stroke: none; stroke-width: 1; stroke-dasharray: none; stroke-linecap: butt; stroke-dashoffset: 0; stroke-linejoin: miter; stroke-miterlimit: 4; fill: rgb(245,207,135); fill-rule: nonzero; opacity: 1;"  transform=" translate(-40, -40)" d="M 49.899 49.899 c -1.562 1.562 -4.095 1.562 -5.657 0 L 30.101 35.757 c -1.562 -1.562 -1.562 -4.095 0 -5.657 l 0 0 c 1.562 -1.562 4.095 -1.562 5.657 0 l 14.142 14.142 C 51.462 45.805 51.462 48.337 49.899 49.899 L 49.899 49.899 z" stroke-linecap="round" />
</g>
<g transform="matrix(8.93 0 0 8.93 316.99 252.59)" id="Layer_1"  >
<path style="stroke: none; stroke-width: 1; stroke-dasharray: none; stroke-linecap: butt; stroke-dashoffset: 0; stroke-linejoin: miter; stroke-miterlimit: 4; fill: rgb(35,31,32); fill-rule: nonzero; opacity: 0.2;"  transform=" translate(-32, -34)" d="M 53.304 18.353 l -6.476 6.476 c -1.562 1.562 -4.095 1.562 -5.657 0 c -1.562 -1.562 -1.562 -4.095 0 -5.657 l 6.476 -6.476 C 46.516 12.252 45.289 12 44 12 c -5.523 0 -10 4.477 -10 10 c 0 1.289 0.252 2.516 0.696 3.647 L 23.647 36.696 C 22.516 36.252 21.289 36 20 36 c -5.523 0 -10 4.477 -10 10 c 0 1.289 0.252 2.516 0.696 3.647 l 6.476 -6.476 c 1.562 -1.562 4.095 -1.562 5.657 0 c 1.562 1.562 1.562 4.095 0 5.657 l -6.476 6.476 C 17.484 55.748 18.711 56 20 56 c 5.523 0 10 -4.477 10 -10 c 0 -1.289 -0.252 -2.516 -0.696 -3.647 l 11.049 -11.049 C 41.484 31.748 42.711 32 44 32 c 5.523 0 10 -4.477 10 -10 C 54 20.711 53.748 19.484 53.304 18.353 z" stroke-linecap="round" />
</g>
<g transform="matrix(6.31 -6.31 6.31 6.31 316.98 234.74)" id="Layer_1"  >
<rect style="stroke: none; stroke-width: 1; stroke-dasharray: none; stroke-linecap: butt; stroke-dashoffset: 0; stroke-linejoin: miter; stroke-miterlimit: 4; fill: rgb(255,255,255); fill-rule: nonzero; opacity: 1;"  x="-8.57" y="-4" rx="0" ry="0" width="17.14" height="8" />
</g>
<g transform="matrix(8.93 0 0 8.93 191.65 110.1)" id="Layer_1"  >
<polygon style="stroke: none; stroke-width: 1; stroke-dasharray: none; stroke-linecap: butt; stroke-dashoffset: 0; stroke-linejoin: miter; stroke-miterlimit: 4; fill: rgb(79,93,115); fill-rule: nonzero; opacity: 1;"  points="3.04,5.91 -2.87,2.87 -5.91,-3.04 -3.04,-5.91 2.87,-2.87 5.91,3.04 " />
</g>
<g transform="matrix(8.93 0 0 8.93 424.12 127.6)" id="Layer_1"  >
<path style="stroke: none; stroke-width: 1; stroke-dasharray: none; stroke-linecap: butt; stroke-dashoffset: 0; stroke-linejoin: miter; stroke-miterlimit: 4; fill: rgb(255,255,255); fill-rule: nonzero; opacity: 1;"  transform=" translate(-44, -20)" d="M 46.828 22.828 c -1.562 1.562 -4.095 1.562 -5.657 0 c -1.562 -1.562 -1.562 -4.095 0 -5.657 l 6.476 -6.476 C 46.516 10.252 45.289 10 44 10 c -5.523 0 -10 4.477 -10 10 c 0 5.523 4.477 10 10 10 s 10 -4.477 10 -10 c 0 -1.289 -0.252 -2.516 -0.696 -3.647 L 46.828 22.828 z" stroke-linecap="round" />
</g>
<g transform="matrix(8.93 0 0 8.93 209.85 341.87)" id="Layer_1"  >
<path style="stroke: none; stroke-width: 1; stroke-dasharray: none; stroke-linecap: butt; stroke-dashoffset: 0; stroke-linejoin: miter; stroke-miterlimit: 4; fill: rgb(255,255,255); fill-rule: nonzero; opacity: 1;"  transform=" translate(-20, -44)" d="M 17.172 41.172 c 1.562 -1.562 4.095 -1.562 5.657 0 c 1.562 1.562 1.562 4.095 0 5.657 l -6.476 6.476 C 17.484 53.748 18.711 54 20 54 c 5.523 0 10 -4.477 10 -10 c 0 -5.523 -4.477 -10 -10 -10 s -10 4.477 -10 10 c 0 1.289 0.252 2.516 0.696 3.647 L 17.172 41.172 z" stroke-linecap="round" />
</g>
</svg>